<svg width="356" height="329" viewBox="0 0 356 329" fill="none" xmlns="http://www.w3.org/2000/svg">
<path d="M244.508 136.132C219.841 119.429 188.763 116.468 161.372 128.216C133.982 139.963 114.705 164.521 109.807 193.903L97.9978 264.705C96.0385 276.451 97.8765 288.264 103.307 298.859C108.74 309.457 117.259 317.841 127.945 323.114C138.633 328.377 150.48 330.026 162.207 327.885C173.933 325.743 184.435 320.006 192.577 311.298L193.12 310.712C213.702 289.023 242.586 276.753 272.506 277.018C280.223 277.086 287.723 275.577 294.665 272.599C298.44 270.98 302.054 268.924 305.449 266.453C315.084 259.436 322.055 249.716 325.61 238.341C329.161 226.971 328.961 215.016 325.028 203.772C321.096 192.528 313.805 183.057 303.942 176.375L244.508 136.132ZM83.7483 204.993C92.6012 196.381 96.9926 184.396 96.1123 171.244C95.276 158.728 89.6969 146.586 80.4 137.053C71.1044 127.529 59.1033 121.646 46.605 120.486C33.4771 119.27 21.3759 123.346 12.543 131.958C-5.23458 149.263 -3.73114 179.733 15.9032 199.893C31.5578 215.926 54.0523 220.638 71.5344 213.14C76.0731 211.2 80.2141 208.438 83.7483 204.993ZM134.21 131.848C160.819 120.436 171.898 86.5081 158.907 56.2179C145.913 25.92 113.693 10.5569 87.0842 21.9692C60.4778 33.3804 49.4031 67.3117 62.3975 97.6096C75.3885 127.9 107.603 143.26 134.21 131.848ZM223.339 109.601L223.342 109.6C227.92 109.211 232.407 108.089 236.629 106.275C256.034 97.9527 268.893 75.7301 266.808 50.9468C265.609 36.6805 259.674 23.5974 250.097 14.1102C240.075 4.17664 227.311 -0.679931 214.157 0.434906C200.999 1.55048 189.228 8.48721 181.008 19.9652C173.155 30.929 169.494 44.8256 170.698 59.0894C173.232 89.1831 196.847 111.842 223.339 109.601ZM322.215 59.6037L322.204 59.5993C298.046 53.9256 273.12 71.566 266.639 98.9317C260.177 126.301 274.56 153.201 298.695 158.897C307.499 160.977 316.409 159.954 324.489 156.488C338.574 150.448 350.146 136.981 354.276 119.573C360.735 92.2037 346.355 65.3026 322.215 59.6031L322.215 59.6037Z" fill="#E47537"/>
</svg>
