<svg width="320" height="840" viewBox="0 0 320 840" fill="none" xmlns="http://www.w3.org/2000/svg">
<mask id="mask0_33_687" style="mask-type:alpha" maskUnits="userSpaceOnUse" x="0" y="0" width="320" height="840">
<path d="M0 80C0 35.8172 35.8172 0 80 0H240C284.183 0 320 35.8172 320 80V840H0V80Z" fill="#E47537"/>
</mask>
<g mask="url(#mask0_33_687)">
<g opacity="0.3" clip-path="url(#clip0_33_687)">
<rect x="1.12891" width="426.842" height="0.296007" fill="#FDEEE3"/>
<rect x="1.12891" y="15.1338" width="426.842" height="0.296007" fill="#FDEEE3"/>
<rect x="1.12891" y="30.2676" width="426.842" height="0.296007" fill="#FDEEE3"/>
<rect x="1.12891" y="45.4014" width="426.842" height="0.296007" fill="#FDEEE3"/>
<rect x="1.12891" y="60.535" width="426.842" height="0.296007" fill="#FDEEE3"/>
<rect x="1.12891" y="75.6688" width="426.842" height="0.296007" fill="#FDEEE3"/>
<rect x="1.12891" y="90.8026" width="426.842" height="0.296007" fill="#FDEEE3"/>
<rect x="1.12891" y="105.936" width="426.842" height="0.296007" fill="#FDEEE3"/>
<rect x="1.12891" y="121.07" width="426.842" height="0.296007" fill="#FDEEE3"/>
<rect x="1.12891" y="136.204" width="426.842" height="0.296007" fill="#FDEEE3"/>
<rect x="1.12891" y="151.338" width="426.842" height="0.296007" fill="#FDEEE3"/>
<rect x="1.12891" y="166.471" width="426.842" height="0.296007" fill="#FDEEE3"/>
<rect x="1.12891" y="181.605" width="426.842" height="0.296007" fill="#FDEEE3"/>
<rect x="1.12891" y="196.739" width="426.842" height="0.296007" fill="#FDEEE3"/>
<rect x="1.12891" y="211.873" width="426.842" height="0.296007" fill="#FDEEE3"/>
<rect x="1.12891" y="227.006" width="426.842" height="0.296007" fill="#FDEEE3"/>
<rect x="1.12891" y="242.14" width="426.842" height="0.296007" fill="#FDEEE3"/>
<rect x="1.12891" y="257.274" width="426.842" height="0.296007" fill="#FDEEE3"/>
<rect x="1.12891" y="272.408" width="426.842" height="0.296007" fill="#FDEEE3"/>
<rect x="1.12891" y="287.542" width="426.842" height="0.296007" fill="#FDEEE3"/>
<rect x="1.12891" y="302.675" width="426.842" height="0.296007" fill="#FDEEE3"/>
<rect x="1.12891" y="317.809" width="426.842" height="0.296007" fill="#FDEEE3"/>
<rect x="1.12891" y="332.943" width="426.842" height="0.296007" fill="#FDEEE3"/>
<rect x="1.12891" y="348.077" width="426.842" height="0.296007" fill="#FDEEE3"/>
<rect x="1.12891" y="363.21" width="426.842" height="0.296007" fill="#FDEEE3"/>
<rect x="1.12891" y="439.167" width="426.842" height="0.296007" fill="#FDEEE3"/>
<rect x="1.12891" y="560.689" width="426.842" height="0.296007" fill="#FDEEE3"/>
<rect x="1.12891" y="681.689" width="426.842" height="0.296007" fill="#FDEEE3"/>
<rect x="1.12891" y="772.421" width="426.842" height="0.296007" fill="#FDEEE3"/>
<rect x="1.12891" y="378.344" width="426.842" height="0.296007" fill="#FDEEE3"/>
<rect x="1.12891" y="454.3" width="426.842" height="0.296007" fill="#FDEEE3"/>
<rect x="1.12891" y="575.823" width="426.842" height="0.296007" fill="#FDEEE3"/>
<rect x="1.12891" y="696.823" width="426.842" height="0.296007" fill="#FDEEE3"/>
<rect x="1.12891" y="787.555" width="426.842" height="0.296007" fill="#FDEEE3"/>
<rect x="1.12891" y="393.478" width="426.842" height="0.296007" fill="#FDEEE3"/>
<rect x="1.12891" y="515" width="426.842" height="0.296007" fill="#FDEEE3"/>
<rect x="1.12891" y="636" width="426.842" height="0.296007" fill="#FDEEE3"/>
<rect x="1.12891" y="469.434" width="426.842" height="0.296007" fill="#FDEEE3"/>
<rect x="1.12891" y="590.956" width="426.842" height="0.296007" fill="#FDEEE3"/>
<rect x="1.12891" y="711.956" width="426.842" height="0.296007" fill="#FDEEE3"/>
<rect x="1.12891" y="802.689" width="426.842" height="0.296007" fill="#FDEEE3"/>
<rect x="1.12891" y="408.612" width="426.842" height="0.296007" fill="#FDEEE3"/>
<rect x="1.12891" y="530.134" width="426.842" height="0.296007" fill="#FDEEE3"/>
<rect x="1.12891" y="651.134" width="426.842" height="0.296007" fill="#FDEEE3"/>
<rect x="1.12891" y="484.568" width="426.842" height="0.296007" fill="#FDEEE3"/>
<rect x="1.12891" y="606.09" width="426.842" height="0.296007" fill="#FDEEE3"/>
<rect x="1.12891" y="727.09" width="426.842" height="0.296007" fill="#FDEEE3"/>
<rect x="1.12891" y="817.823" width="426.842" height="0.296007" fill="#FDEEE3"/>
<rect x="1.12891" y="423.745" width="426.842" height="0.296007" fill="#FDEEE3"/>
<rect x="1.12891" y="545.267" width="426.842" height="0.296007" fill="#FDEEE3"/>
<rect x="1.12891" y="666.267" width="426.842" height="0.296007" fill="#FDEEE3"/>
<rect x="1.12891" y="757" width="426.842" height="0.296007" fill="#FDEEE3"/>
<rect x="1.12891" y="499.702" width="426.842" height="0.296007" fill="#FDEEE3"/>
<rect x="1.12891" y="621.224" width="426.842" height="0.296007" fill="#FDEEE3"/>
<rect x="1.12891" y="742.224" width="426.842" height="0.296007" fill="#FDEEE3"/>
<rect x="1.12891" y="832.957" width="426.842" height="0.296007" fill="#FDEEE3"/>
</g>
<g opacity="0.2">
<rect x="1" width="0.5" height="840" fill="#FDEEE3"/>
<rect x="16" width="0.5" height="840" fill="#FDEEE3"/>
<rect x="31" width="0.5" height="840" fill="#FDEEE3"/>
<rect x="61" width="0.5" height="840" fill="#FDEEE3"/>
<rect x="47" width="0.5" height="840" fill="#FDEEE3"/>
<rect x="76" width="0.5" height="840" fill="#FDEEE3"/>
<rect x="91" width="0.5" height="840" fill="#FDEEE3"/>
<rect x="106" width="0.5" height="840" fill="#FDEEE3"/>
<rect x="166.667" width="0.416667" height="487.917" fill="#FDEEE3"/>
<rect x="182" width="0.5" height="840" fill="#FDEEE3"/>
<rect x="242.5" width="0.416667" height="487.917" fill="#FDEEE3"/>
<rect x="302.917" width="0.416667" height="487.917" fill="#FDEEE3"/>
<rect x="122" width="0.5" height="840" fill="#FDEEE3"/>
<rect x="137" width="0.5" height="840" fill="#FDEEE3"/>
<rect x="152" width="0.5" height="840" fill="#FDEEE3"/>
<rect x="167" width="0.5" height="840" fill="#FDEEE3"/>
<rect x="197" width="0.5" height="840" fill="#FDEEE3"/>
<rect x="212" width="0.5" height="840" fill="#FDEEE3"/>
<rect x="227" width="0.5" height="840" fill="#FDEEE3"/>
<rect x="243" width="0.5" height="840" fill="#FDEEE3"/>
<rect x="258" width="0.5" height="840" fill="#FDEEE3"/>
<rect x="273" width="0.5" height="840" fill="#FDEEE3"/>
<rect x="288" width="0.5" height="840" fill="#FDEEE3"/>
<rect x="303" width="0.5" height="840" fill="#FDEEE3"/>
<rect x="318" width="0.5" height="840" fill="#FDEEE3"/>
</g>
</g>
<defs>
<clipPath id="clip0_33_687">
<rect width="320" height="840" fill="white"/>
</clipPath>
</defs>
</svg>
