<svg width="768" height="1171" viewBox="0 0 768 1171" fill="none" xmlns="http://www.w3.org/2000/svg">
<mask id="mask0_33_396" style="mask-type:alpha" maskUnits="userSpaceOnUse" x="0" y="0" width="768" height="1171">
<path d="M0 120C0 53.7259 53.7258 0 120 0H648C714.274 0 768 53.7258 768 120V1171H0V120Z" fill="#E47537"/>
</mask>
<g mask="url(#mask0_33_396)">
<g opacity="0.3" clip-path="url(#clip0_33_396)">
<rect x="2.70996" width="1024.42" height="0.710417" fill="#FDEEE3"/>
<rect x="2.70996" y="36.321" width="1024.42" height="0.710417" fill="#FDEEE3"/>
<rect x="2.70996" y="72.6421" width="1024.42" height="0.710417" fill="#FDEEE3"/>
<rect x="2.70996" y="108.963" width="1024.42" height="0.710417" fill="#FDEEE3"/>
<rect x="2.70996" y="145.284" width="1024.42" height="0.710417" fill="#FDEEE3"/>
<rect x="2.70996" y="181.605" width="1024.42" height="0.710417" fill="#FDEEE3"/>
<rect x="2.70996" y="217.926" width="1024.42" height="0.710417" fill="#FDEEE3"/>
<rect x="2.70996" y="254.247" width="1024.42" height="0.710417" fill="#FDEEE3"/>
<rect x="2.70996" y="290.568" width="1024.42" height="0.710417" fill="#FDEEE3"/>
<rect x="2.70996" y="326.889" width="1024.42" height="0.710417" fill="#FDEEE3"/>
<rect x="2.70996" y="363.21" width="1024.42" height="0.710417" fill="#FDEEE3"/>
<rect x="2.70996" y="399.531" width="1024.42" height="0.710417" fill="#FDEEE3"/>
<rect x="2.70996" y="435.853" width="1024.42" height="0.710417" fill="#FDEEE3"/>
<rect x="2.70996" y="472.173" width="1024.42" height="0.710417" fill="#FDEEE3"/>
<rect x="2.70996" y="508.495" width="1024.42" height="0.710417" fill="#FDEEE3"/>
<rect x="2.70996" y="544.815" width="1024.42" height="0.710417" fill="#FDEEE3"/>
<rect x="2.70996" y="581.136" width="1024.42" height="0.710417" fill="#FDEEE3"/>
<rect x="2.70996" y="617.458" width="1024.42" height="0.710417" fill="#FDEEE3"/>
<rect x="2.70996" y="653.779" width="1024.42" height="0.710417" fill="#FDEEE3"/>
<rect x="2.70996" y="690.1" width="1024.42" height="0.710417" fill="#FDEEE3"/>
<rect x="2.70996" y="726.421" width="1024.42" height="0.710417" fill="#FDEEE3"/>
<rect x="2.70996" y="762.742" width="1024.42" height="0.710417" fill="#FDEEE3"/>
<rect x="2.70996" y="799.063" width="1024.42" height="0.710417" fill="#FDEEE3"/>
<rect x="2.70996" y="835.384" width="1024.42" height="0.710417" fill="#FDEEE3"/>
<rect x="2.70996" y="871.705" width="1024.42" height="0.710417" fill="#FDEEE3"/>
<rect x="2.70996" y="1054" width="1024.42" height="0.710417" fill="#FDEEE3"/>
<rect x="2.70996" y="908.026" width="1024.42" height="0.710417" fill="#FDEEE3"/>
<rect x="2.70996" y="1090.32" width="1024.42" height="0.710417" fill="#FDEEE3"/>
<rect x="2.70996" y="944.347" width="1024.42" height="0.710417" fill="#FDEEE3"/>
<rect x="2.70996" y="1126.64" width="1024.42" height="0.710417" fill="#FDEEE3"/>
<rect x="2.70996" y="980.668" width="1024.42" height="0.710417" fill="#FDEEE3"/>
<rect x="2.70996" y="1162.96" width="1024.42" height="0.710417" fill="#FDEEE3"/>
<rect x="2.70996" y="1016.99" width="1024.42" height="0.710417" fill="#FDEEE3"/>
</g>
<g opacity="0.2">
<rect x="2" width="1" height="1171" fill="#FDEEE3"/>
<rect x="38" width="1" height="1171" fill="#FDEEE3"/>
<rect x="74" width="1" height="1171" fill="#FDEEE3"/>
<rect x="147" width="1" height="1171" fill="#FDEEE3"/>
<rect x="112" width="1" height="1171" fill="#FDEEE3"/>
<rect x="183" width="1" height="1171" fill="#FDEEE3"/>
<rect x="219" width="1" height="1171" fill="#FDEEE3"/>
<rect x="255" width="1" height="1171" fill="#FDEEE3"/>
<rect x="400" width="1" height="1171" fill="#FDEEE3"/>
<rect x="436" width="1" height="1171" fill="#FDEEE3"/>
<rect x="582" width="1" height="1171" fill="#FDEEE3"/>
<rect x="727" width="1" height="1171" fill="#FDEEE3"/>
<rect x="292" width="1" height="1171" fill="#FDEEE3"/>
<rect x="328" width="1" height="1171" fill="#FDEEE3"/>
<rect x="364" width="1" height="1171" fill="#FDEEE3"/>
<rect x="473" width="1" height="1171" fill="#FDEEE3"/>
<rect x="509" width="1" height="1171" fill="#FDEEE3"/>
<rect x="545" width="1" height="1171" fill="#FDEEE3"/>
<rect x="618" width="1" height="1171" fill="#FDEEE3"/>
<rect x="654" width="1" height="1171" fill="#FDEEE3"/>
<rect x="690" width="1" height="1171" fill="#FDEEE3"/>
<rect x="763" width="1" height="1171" fill="#FDEEE3"/>
</g>
</g>
<defs>
<clipPath id="clip0_33_396">
<rect width="768" height="1171" fill="white"/>
</clipPath>
</defs>
</svg>
